<svg width="191" height="193" viewBox="0 0 191 193" fill="none" xmlns="http://www.w3.org/2000/svg">
<path d="M190.899 0.0220337L167.349 6.27402L173.072 12.023L125.14 59.746L104.641 30.2801C103.738 28.9801 102.164 28.32 100.604 28.591C99.044 28.862 97.783 30.009 97.368 31.537L73.227 120.363L55.204 87.9911C54.582 86.8751 53.475 86.115 52.209 85.938C50.941 85.758 49.669 86.1881 48.766 87.0901L13.472 122.386C11.881 123.977 11.881 126.554 13.472 128.145C15.063 129.736 17.641 129.736 19.232 128.145L50.711 96.666L70.976 133.066C71.7 134.366 73.069 135.156 74.533 135.156C74.697 135.156 74.862 135.147 75.027 135.127C76.672 134.928 78.03 133.75 78.465 132.152L102.939 42.095L121.227 68.383C121.915 69.372 123.005 70.006 124.205 70.115C125.406 70.219 126.591 69.794 127.445 68.944L178.819 17.795L184.543 23.545L190.899 0.0220337Z" fill="#7AAD71"/>
<path d="M9.88799 182.723V22.114H6.34399V182.723V186.268H9.88799H190.899V182.723H9.88799Z" fill="#494949"/>
<path d="M26.133 182.854H22.588V192.038H26.133V182.854Z" fill="#494949"/>
<path d="M68.838 182.854H65.294V192.038H68.838V182.854Z" fill="#494949"/>
<path d="M111.545 182.854H108V192.038H111.545V182.854Z" fill="#494949"/>
<path d="M154.251 182.854H150.707V192.038H154.251V182.854Z" fill="#494949"/>
<path d="M9.35199 38.359H0.166992V41.9051H9.35199V38.359Z" fill="#494949"/>
<path d="M9.35199 81.066H0.166992V84.609H9.35199V81.066Z" fill="#494949"/>
<path d="M9.35199 123.771H0.166992V127.316H9.35199V123.771Z" fill="#494949"/>
<path d="M9.35199 166.477H0.166992V170.022H9.35199V166.477Z" fill="#494949"/>
</svg>
