<svg width="225" height="41" viewBox="0 0 225 41" fill="none" xmlns="http://www.w3.org/2000/svg">
<path d="M139.786 19.0391H133.876C133.768 18.2744 133.547 17.5952 133.214 17.0014C132.882 16.3987 132.454 15.8859 131.933 15.4631C131.411 15.0402 130.808 14.7164 130.124 14.4915C129.45 14.2666 128.716 14.1541 127.925 14.1541C126.494 14.1541 125.248 14.5095 124.187 15.2202C123.125 15.9219 122.302 16.9474 121.717 18.2969C121.133 19.6373 120.84 21.2656 120.84 23.1818C120.84 25.152 121.133 26.8073 121.717 28.1477C122.311 29.4882 123.139 30.5002 124.2 31.1839C125.262 31.8677 126.49 32.2095 127.884 32.2095C128.667 32.2095 129.391 32.1061 130.057 31.8991C130.732 31.6922 131.33 31.3909 131.852 30.995C132.373 30.5902 132.805 30.0999 133.147 29.5241C133.498 28.9484 133.741 28.2917 133.876 27.554L139.786 27.581C139.633 28.8494 139.251 30.0729 138.639 31.2514C138.036 32.4209 137.222 33.469 136.197 34.3956C135.18 35.3132 133.966 36.0419 132.553 36.5817C131.15 37.1125 129.562 37.3778 127.79 37.3778C125.325 37.3778 123.121 36.8201 121.178 35.7045C119.243 34.589 117.714 32.9742 116.589 30.8601C115.474 28.746 114.916 26.1866 114.916 23.1818C114.916 20.1681 115.483 17.6042 116.616 15.4901C117.75 13.3759 119.288 11.7656 121.232 10.6591C123.175 9.54356 125.361 8.98579 127.79 8.98579C129.391 8.98579 130.875 9.2107 132.243 9.66051C133.619 10.1103 134.838 10.767 135.9 11.6307C136.961 12.4853 137.825 13.5334 138.491 14.7749C139.165 16.0163 139.597 17.4377 139.786 19.0391ZM153.233 37.4048C151.137 37.4048 149.324 36.9595 147.795 36.0689C146.275 35.1693 145.101 33.9188 144.273 32.3175C143.445 30.7071 143.032 28.8404 143.032 26.7173C143.032 24.5762 143.445 22.705 144.273 21.1037C145.101 19.4934 146.275 18.2429 147.795 17.3523C149.324 16.4527 151.137 16.0028 153.233 16.0028C155.329 16.0028 157.138 16.4527 158.658 17.3523C160.187 18.2429 161.366 19.4934 162.194 21.1037C163.021 22.705 163.435 24.5762 163.435 26.7173C163.435 28.8404 163.021 30.7071 162.194 32.3175C161.366 33.9188 160.187 35.1693 158.658 36.0689C157.138 36.9595 155.329 37.4048 153.233 37.4048ZM153.26 32.9517C154.214 32.9517 155.01 32.6818 155.649 32.142C156.288 31.5933 156.769 30.8466 157.093 29.902C157.426 28.9574 157.592 27.8823 157.592 26.6768C157.592 25.4714 157.426 24.3963 157.093 23.4517C156.769 22.5071 156.288 21.7604 155.649 21.2116C155.01 20.6629 154.214 20.3885 153.26 20.3885C152.298 20.3885 151.488 20.6629 150.831 21.2116C150.184 21.7604 149.693 22.5071 149.36 23.4517C149.037 24.3963 148.875 25.4714 148.875 26.6768C148.875 27.8823 149.037 28.9574 149.36 29.902C149.693 30.8466 150.184 31.5933 150.831 32.142C151.488 32.6818 152.298 32.9517 153.26 32.9517ZM170.742 37L165.102 16.2727H170.918L174.129 30.1989H174.318L177.665 16.2727H183.373L186.773 30.1179H186.949L190.107 16.2727H195.909L190.282 37H184.196L180.634 23.9645H180.377L176.815 37H170.742ZM216.221 22.1832L210.959 22.5071C210.869 22.0573 210.675 21.6525 210.378 21.2926C210.081 20.9238 209.69 20.6314 209.204 20.4155C208.728 20.1906 208.156 20.0781 207.491 20.0781C206.6 20.0781 205.849 20.267 205.237 20.6449C204.625 21.0137 204.319 21.5085 204.319 22.1293C204.319 22.6241 204.517 23.0424 204.913 23.3842C205.309 23.7261 205.988 24.0005 206.951 24.2074L210.702 24.9631C212.717 25.3769 214.22 26.0426 215.209 26.9602C216.199 27.8778 216.694 29.0833 216.694 30.5767C216.694 31.9351 216.293 33.1271 215.493 34.1527C214.701 35.1783 213.613 35.9789 212.227 36.5547C210.851 37.1214 209.263 37.4048 207.464 37.4048C204.72 37.4048 202.534 36.8336 200.905 35.6911C199.286 34.5395 198.337 32.9742 198.058 30.995L203.712 30.6982C203.883 31.5348 204.297 32.1735 204.954 32.6143C205.61 33.0462 206.452 33.2621 207.477 33.2621C208.485 33.2621 209.294 33.0687 209.906 32.6818C210.527 32.286 210.842 31.7777 210.851 31.157C210.842 30.6352 210.621 30.2079 210.189 29.875C209.758 29.5331 209.092 29.2723 208.192 29.0923L204.603 28.3771C202.579 27.9723 201.072 27.2706 200.082 26.272C199.102 25.2734 198.611 24.0005 198.611 22.4531C198.611 21.1217 198.971 19.9747 199.691 19.0121C200.42 18.0495 201.441 17.3073 202.754 16.7855C204.077 16.2637 205.624 16.0028 207.396 16.0028C210.014 16.0028 212.074 16.5561 213.577 17.6626C215.088 18.7692 215.97 20.276 216.221 22.1832Z" fill="black"/>
<path d="M17.3942 17.3118C17.2862 16.2232 16.8229 15.3776 16.0043 14.7749C15.1856 14.1721 14.0746 13.8707 12.6712 13.8707C11.7176 13.8707 10.9124 14.0057 10.2557 14.2756C9.59896 14.5365 9.09517 14.9008 8.74432 15.3686C8.40246 15.8364 8.23153 16.3672 8.23153 16.9609C8.21354 17.4557 8.317 17.8875 8.5419 18.2564C8.77581 18.6252 9.09517 18.9446 9.5 19.2145C9.90483 19.4754 10.3726 19.7048 10.9034 19.9027C11.4342 20.0916 12.0009 20.2536 12.6037 20.3885L15.0866 20.9822C16.2921 21.2521 17.3987 21.612 18.4062 22.0618C19.4138 22.5116 20.2865 23.0649 21.0241 23.7216C21.7618 24.3783 22.3331 25.152 22.7379 26.0426C23.1518 26.9332 23.3632 27.9543 23.3722 29.1058C23.3632 30.7971 22.9313 32.2635 22.0767 33.505C21.2311 34.7375 20.0076 35.6955 18.4062 36.3793C16.8139 37.054 14.8932 37.3913 12.6442 37.3913C10.4131 37.3913 8.46993 37.0495 6.81463 36.3658C5.16832 35.6821 3.88187 34.67 2.95526 33.3295C2.03764 31.9801 1.55634 30.3113 1.51136 28.3232H7.16548C7.22846 29.2498 7.49384 30.0234 7.96165 30.6442C8.43845 31.2559 9.07268 31.7192 9.86435 32.0341C10.665 32.34 11.5691 32.4929 12.5767 32.4929C13.5663 32.4929 14.4254 32.349 15.1541 32.0611C15.8918 31.7732 16.4631 31.3729 16.8679 30.8601C17.2727 30.3473 17.4751 29.758 17.4751 29.0923C17.4751 28.4716 17.2907 27.9498 16.9219 27.527C16.562 27.1042 16.0313 26.7443 15.3295 26.4474C14.6368 26.1506 13.7867 25.8807 12.7791 25.6378L9.76989 24.8821C7.43987 24.3153 5.60014 23.4292 4.25071 22.2237C2.90128 21.0182 2.23106 19.3944 2.24006 17.3523C2.23106 15.679 2.67637 14.2171 3.57599 12.9666C4.48461 11.7161 5.73059 10.7401 7.31392 10.0384C8.89725 9.33665 10.6965 8.98579 12.7116 8.98579C14.7628 8.98579 16.553 9.33665 18.0824 10.0384C19.6207 10.7401 20.8172 11.7161 21.6719 12.9666C22.5265 14.2171 22.9673 15.6655 22.9943 17.3118H17.3942ZM36.6404 37.4048C34.5083 37.4048 32.6731 36.973 31.1348 36.1094C29.6054 35.2367 28.4269 34.0043 27.5993 32.4119C26.7716 30.8106 26.3578 28.9169 26.3578 26.7308C26.3578 24.5987 26.7716 22.7275 27.5993 21.1172C28.4269 19.5069 29.5919 18.2519 31.0943 17.3523C32.6056 16.4527 34.3779 16.0028 36.411 16.0028C37.7785 16.0028 39.0514 16.2232 40.2299 16.6641C41.4174 17.0959 42.452 17.7481 43.3336 18.6207C44.2243 19.4934 44.917 20.5909 45.4118 21.9134C45.9065 23.2268 46.1539 24.7652 46.1539 26.5284V28.1072H28.6518V24.5447H40.7427C40.7427 23.7171 40.5628 22.9839 40.2029 22.3452C39.8431 21.7064 39.3438 21.2071 38.7051 20.8473C38.0753 20.4785 37.3422 20.294 36.5055 20.294C35.6329 20.294 34.8592 20.4964 34.1845 20.9013C33.5188 21.2971 32.997 21.8324 32.6191 22.5071C32.2413 23.1728 32.0479 23.915 32.0389 24.7337V28.1207C32.0389 29.1463 32.2278 30.0324 32.6056 30.7791C32.9925 31.5258 33.5368 32.1016 34.2385 32.5064C34.9402 32.9112 35.7723 33.1136 36.7349 33.1136C37.3736 33.1136 37.9584 33.0237 38.4892 32.8438C39.0199 32.6638 39.4743 32.3939 39.8521 32.0341C40.2299 31.6742 40.5178 31.2334 40.7157 30.7116L46.0325 31.0625C45.7626 32.34 45.2093 33.4555 44.3727 34.4091C43.545 35.3537 42.4745 36.0914 41.161 36.6222C39.8566 37.1439 38.3497 37.4048 36.6404 37.4048ZM68.6726 16.2727L61.4261 37H54.9489L47.7024 16.2727H53.7749L58.0795 31.103H58.2955L62.5866 16.2727H68.6726ZM80.3924 37.4048C78.2603 37.4048 76.4251 36.973 74.8867 36.1094C73.3574 35.2367 72.1789 34.0043 71.3512 32.4119C70.5236 30.8106 70.1097 28.9169 70.1097 26.7308C70.1097 24.5987 70.5236 22.7275 71.3512 21.1172C72.1789 19.5069 73.3439 18.2519 74.8462 17.3523C76.3576 16.4527 78.1299 16.0028 80.163 16.0028C81.5304 16.0028 82.8034 16.2232 83.9819 16.6641C85.1694 17.0959 86.204 17.7481 87.0856 18.6207C87.9762 19.4934 88.6689 20.5909 89.1637 21.9134C89.6585 23.2268 89.9059 24.7652 89.9059 26.5284V28.1072H72.4038V24.5447H84.4947C84.4947 23.7171 84.3147 22.9839 83.9549 22.3452C83.5951 21.7064 83.0958 21.2071 82.457 20.8473C81.8273 20.4785 81.0941 20.294 80.2575 20.294C79.3848 20.294 78.6112 20.4964 77.9364 20.9013C77.2707 21.2971 76.7489 21.8324 76.3711 22.5071C75.9933 23.1728 75.7998 23.915 75.7908 24.7337V28.1207C75.7908 29.1463 75.9798 30.0324 76.3576 30.7791C76.7444 31.5258 77.2887 32.1016 77.9904 32.5064C78.6921 32.9112 79.5243 33.1136 80.4869 33.1136C81.1256 33.1136 81.7103 33.0237 82.2411 32.8438C82.7719 32.6638 83.2262 32.3939 83.604 32.0341C83.9819 31.6742 84.2698 31.2334 84.4677 30.7116L89.7844 31.0625C89.5146 32.34 88.9613 33.4555 88.1246 34.4091C87.297 35.3537 86.2264 36.0914 84.913 36.6222C83.6085 37.1439 82.1017 37.4048 80.3924 37.4048ZM99.4059 25.017V37H93.6573V16.2727H99.136V19.9297H99.3789C99.8377 18.7242 100.607 17.7706 101.686 17.0689C102.766 16.3582 104.075 16.0028 105.613 16.0028C107.053 16.0028 108.308 16.3177 109.378 16.9474C110.449 17.5772 111.281 18.4768 111.875 19.6463C112.468 20.8068 112.765 22.1922 112.765 23.8026V37H107.017V24.8281C107.026 23.5597 106.702 22.5701 106.045 21.8594C105.388 21.1397 104.484 20.7798 103.333 20.7798C102.559 20.7798 101.875 20.9463 101.282 21.2791C100.697 21.612 100.238 22.0978 99.9052 22.7365C99.5813 23.3662 99.4149 24.1264 99.4059 25.017Z" fill="#7AAD71"/>
</svg>
